<svg class="main-svg" xmlns="http://www.w3.org/2000/svg" xmlns:xlink="http://www.w3.org/1999/xlink" width="1000" height="500" style="" viewBox="0 0 1000 500"><rect x="0" y="0" width="1000" height="500" style="fill: rgb(255, 255, 255); fill-opacity: 1;"/><defs id="defs-247d3f"><g class="clips"><clipPath id="clip247d3fxyplot" class="plotclip"><rect width="840" height="320"/></clipPath><clipPath class="axesclip" id="clip247d3fx"><rect x="80" y="0" width="840" height="500"/></clipPath><clipPath class="axesclip" id="clip247d3fy"><rect x="0" y="100" width="1000" height="320"/></clipPath><clipPath class="axesclip" id="clip247d3fxy"><rect x="80" y="100" width="840" height="320"/></clipPath></g><g class="gradients"/></defs><g class="bglayer"><rect class="bg" x="80" y="100" width="840" height="320" style="fill: rgb(229, 236, 246); fill-opacity: 1; stroke-width: 0;"/></g><g class="layer-below"><g class="imagelayer"/><g class="shapelayer"/></g><g class="cartesianlayer"><g class="subplot xy"><g class="layer-subplot"><g class="shapelayer"/><g class="imagelayer"/></g><g class="gridlayer"><g class="x"><path class="xgrid crisp" transform="translate(108.97,0)" d="M0,100v320" style="stroke: rgb(255, 255, 255); stroke-opacity: 1; stroke-width: 1px;"/><path class="xgrid crisp" transform="translate(192.97,0)" d="M0,100v320" style="stroke: rgb(255, 255, 255); stroke-opacity: 1; stroke-width: 1px;"/><path class="xgrid crisp" transform="translate(282.76,0)" d="M0,100v320" style="stroke: rgb(255, 255, 255); stroke-opacity: 1; stroke-width: 1px;"/><path class="xgrid crisp" transform="translate(369.66,0)" d="M0,100v320" style="stroke: rgb(255, 255, 255); stroke-opacity: 1; stroke-width: 1px;"/><path class="xgrid crisp" transform="translate(459.45,0)" d="M0,100v320" style="stroke: rgb(255, 255, 255); stroke-opacity: 1; stroke-width: 1px;"/><path class="xgrid crisp" transform="translate(546.3399999999999,0)" d="M0,100v320" style="stroke: rgb(255, 255, 255); stroke-opacity: 1; stroke-width: 1px;"/><path class="xgrid crisp" transform="translate(636.14,0)" d="M0,100v320" style="stroke: rgb(255, 255, 255); stroke-opacity: 1; stroke-width: 1px;"/><path class="xgrid crisp" transform="translate(725.93,0)" d="M0,100v320" style="stroke: rgb(255, 255, 255); stroke-opacity: 1; stroke-width: 1px;"/><path class="xgrid crisp" transform="translate(812.83,0)" d="M0,100v320" style="stroke: rgb(255, 255, 255); stroke-opacity: 1; stroke-width: 1px;"/><path class="xgrid crisp" transform="translate(902.62,0)" d="M0,100v320" style="stroke: rgb(255, 255, 255); stroke-opacity: 1; stroke-width: 1px;"/></g><g class="y"><path class="ygrid crisp" transform="translate(0,356.18)" d="M80,0h840" style="stroke: rgb(255, 255, 255); stroke-opacity: 1; stroke-width: 1px;"/><path class="ygrid crisp" transform="translate(0,311.87)" d="M80,0h840" style="stroke: rgb(255, 255, 255); stroke-opacity: 1; stroke-width: 1px;"/><path class="ygrid crisp" transform="translate(0,267.56)" d="M80,0h840" style="stroke: rgb(255, 255, 255); stroke-opacity: 1; stroke-width: 1px;"/><path class="ygrid crisp" transform="translate(0,223.25)" d="M80,0h840" style="stroke: rgb(255, 255, 255); stroke-opacity: 1; stroke-width: 1px;"/><path class="ygrid crisp" transform="translate(0,178.94)" d="M80,0h840" style="stroke: rgb(255, 255, 255); stroke-opacity: 1; stroke-width: 1px;"/><path class="ygrid crisp" transform="translate(0,134.64)" d="M80,0h840" style="stroke: rgb(255, 255, 255); stroke-opacity: 1; stroke-width: 1px;"/></g></g><g class="zerolinelayer"><path class="yzl zl crisp" transform="translate(0,400.48)" d="M80,0h840" style="stroke: rgb(255, 255, 255); stroke-opacity: 1; stroke-width: 2px;"/></g><path class="xlines-below"/><path class="ylines-below"/><g class="overlines-below"/><g class="xaxislayer-below"/><g class="yaxislayer-below"/><g class="overaxes-below"/><g class="plot" transform="translate(80, 100)" clip-path="url('#clip247d3fxyplot')"><g class="scatterlayer mlayer"><g class="trace scatter traceca14c6" style="stroke-miterlimit: 2; opacity: 1;"><g class="fills"/><g class="errorbars"/><g class="lines"><path class="js-line" d="M0,300.48L139.03,300.07L141.93,299.68L150.62,298.8L153.52,299.97L156.41,297.23L159.31,296.42L162.21,294.6L165.1,290.53L168,286.38L170.9,287.2L176.69,275.63L179.59,277.05L182.48,273.82L185.38,260.84L191.17,257.07L194.07,258.54L196.97,251.73L199.86,242.07L202.76,243.29L205.66,233.16L208.55,229.6L211.45,227.38L214.34,238.04L217.24,233.61L220.14,230.93L223.03,229.56L225.93,223.72L228.83,226.19L231.72,235.44L234.62,240.76L237.52,243.35L240.41,237.14L249.1,227.81L252,238.78L254.9,243.59L257.79,237.52L260.69,242.8L263.59,235.58L266.48,226.42L269.38,226.12L272.28,230.03L275.17,240.45L278.07,249.15L280.97,245.82L283.86,238.8L286.76,235.12L289.66,224.67L292.55,238.45L295.45,246.2L298.34,248.64L301.24,246.07L304.14,244.77L307.03,238.92L309.93,240.93L312.83,245.17L315.72,258.71L318.62,257.4L321.52,250.07L324.41,254.03L327.31,239.98L330.21,244.45L333.1,247.27L336,260.34L338.9,251.71L341.79,253.89L344.69,248.4L347.59,243.63L350.48,248.56L353.38,253.52L356.28,255.92L359.17,259.87L362.07,257.23L364.97,259.3L367.86,249.64L370.76,246.54L373.66,247.66L376.55,258L379.45,262.02L382.34,253.13L385.24,256.23L388.14,252.32L391.03,244.73L396.83,261.08L399.72,261.65L402.62,259.78L405.52,254.34L408.41,249.07L411.31,245.39L414.21,244.51L417.1,257.56L420,256.34L422.9,247.76L428.69,238.03L431.59,231.09L434.48,229.02L437.38,242.64L443.17,221.18L446.07,224.14L451.86,200.08L454.76,206.64L457.66,213.3L460.55,210.34L466.34,186.78L469.24,178.37L472.14,184.04L475.03,199.13L477.93,189.75L480.83,201.57L483.72,167.2L486.62,169.37L492.41,150.46L495.31,167.19L498.21,169.99L501.1,168.71L504,152.1L506.9,150.66L509.79,129.06L512.69,140.93L515.59,161.44L518.48,164.7L521.38,163.11L524.28,157.71L527.17,142.48L530.07,147.42L532.97,138.5L535.86,153.2L538.76,178.97L541.66,175.11L544.55,154.66L547.45,142.47L550.34,150.24L553.24,151.71L559.03,195.62L561.93,201.13L564.83,173.15L567.72,181.61L570.62,168.33L573.52,171.22L576.41,177.09L579.31,198.3L582.21,190.23L585.1,196.55L588,174.18L590.9,185.3L593.79,157.38L596.69,195.41L602.48,220.87L605.38,199.99L608.28,195.61L611.17,202.82L614.07,193.65L616.97,202.09L619.86,224.21L622.76,216.62L625.66,215.79L628.55,200.59L631.45,198.84L634.34,198.11L637.24,198.51L640.14,222.14L643.03,224.02L645.93,206.25L648.83,210.58L651.72,203.21L654.62,189.46L657.52,202.8L660.41,231.48L663.31,247.17L666.21,241.25L669.1,226.14L672,219.93L674.9,195.18L680.69,223.62L683.59,225.26L686.48,213.64L689.38,215.06L692.28,201.37L695.17,192.54L698.07,202.85L700.97,220.21L703.86,184.25L706.76,214.1L709.66,215.31L712.55,202.67L715.45,188.4L718.34,201.06L721.24,219.8L724.14,226.67L727.03,207.17L729.93,208.73L732.83,201.3L735.72,179.66L738.62,189.57L741.52,221.91L744.41,212.85L747.31,207.54L750.21,188.96L753.1,175.91L756,173.22L758.9,179.43L761.79,201.63L764.69,208.16L767.59,184.29L770.48,168.59L773.38,159.46L776.28,147.26L782.07,193.65L784.97,171.12L790.76,161.41L793.66,141.64L796.55,114.95L799.45,114.99L802.34,165.77L805.24,152.5L808.14,137.36L811.03,126.89L816.83,80.45L819.72,103.03L822.62,137.44L825.52,114.19L828.41,97.71L831.31,72.67L834.21,30.45L837.1,20.28L840,16" style="vector-effect: non-scaling-stroke; fill: none; stroke: rgb(0, 0, 255); stroke-opacity: 1; stroke-width: 2px; opacity: 1;"/></g><g class="points"/><g class="text"/></g><g class="trace scatter trace2ac821" style="stroke-miterlimit: 2; opacity: 1;"><g class="fills"/><g class="errorbars"/><g class="lines"><path class="js-line" d="M5.79,293.37L20.28,297.22L34.76,300.48L52.14,303.15L55.03,303.43L69.52,304L72.41,303.94L78.21,303.62L78.21,303.62L89.79,302.22L104.28,299.01L104.28,299.01L107.17,298.17L124.55,291.95L124.55,291.95L130.34,289.46L147.72,281.02L147.72,281.02L156.41,276.43L194.07,256.6L194.07,256.6L202.76,252.63L220.14,246.07L223.03,245.18L237.52,241.73L243.31,240.82L254.9,239.82L260.69,239.71L278.07,240.75L280.97,241.09L295.45,243.35L295.45,243.35L307.03,245.53L333.1,250.05L336,250.41L353.38,251.45L356.28,251.4L367.86,250.48L370.76,250.06L373.66,249.55L385.24,246.67L396.83,242.44L405.52,238.4L422.9,228.34L428.69,224.5L460.55,201.08L463.45,198.91L483.72,184.56L486.62,182.7L504,173.02L515.59,168.3L524.28,165.82L524.28,165.82L530.07,164.71L538.76,163.88L556.14,165.21L570.62,169.17L573.52,170.24L588,176.77L596.69,181.45L648.83,211.56L651.72,212.9L660.41,216.41L674.9,220.38L683.59,221.44L683.59,221.44L692.28,221.4L706.76,218.75L724.14,211.18L735.72,203.55L741.52,199L750.21,191.34L756,185.71L767.59,173.36L779.17,159.79L802.34,130.38L808.14,122.81L840,82.44" style="vector-effect: non-scaling-stroke; fill: none; stroke: rgb(255, 0, 0); stroke-opacity: 1; stroke-width: 2px; opacity: 1;"/></g><g class="points"/><g class="text"/></g><g class="trace scatter tracef81715" style="stroke-miterlimit: 2; opacity: 1;"><g class="fills"/><g class="errorbars"/><g class="lines"><path class="js-line" d="M5.79,303.09L556.14,198.9L556.14,198.9L561.93,197.8L840,145.15" style="vector-effect: non-scaling-stroke; fill: none; stroke: rgb(0, 128, 0); stroke-opacity: 1; stroke-width: 2px; opacity: 1;"/></g><g class="points"/><g class="text"/></g></g></g><g class="overplot"/><path class="xlines-above crisp" style="fill: none;" d="M0,0"/><path class="ylines-above crisp" style="fill: none;" d="M0,0"/><g class="overlines-above"/><g class="xaxislayer-above"><g class="xtick"><text text-anchor="middle" x="0" y="435" transform="translate(108.97,0)" style="font-family: 'Open Sans', verdana, arial, sans-serif; font-size: 14px; fill: rgb(42, 63, 95); fill-opacity: 1; white-space: pre;">Feb 2020</text></g><g class="xtick"><text text-anchor="middle" x="0" y="435" transform="translate(192.97,0)" style="font-family: 'Open Sans', verdana, arial, sans-serif; font-size: 14px; fill: rgb(42, 63, 95); fill-opacity: 1; white-space: pre;">Mar 2020</text></g><g class="xtick"><text text-anchor="middle" x="0" y="435" transform="translate(282.76,0)" style="font-family: 'Open Sans', verdana, arial, sans-serif; font-size: 14px; fill: rgb(42, 63, 95); fill-opacity: 1; white-space: pre;">Apr 2020</text></g><g class="xtick"><text text-anchor="middle" x="0" y="435" transform="translate(369.66,0)" style="font-family: 'Open Sans', verdana, arial, sans-serif; font-size: 14px; fill: rgb(42, 63, 95); fill-opacity: 1; white-space: pre;">May 2020</text></g><g class="xtick"><text text-anchor="middle" x="0" y="435" transform="translate(459.45,0)" style="font-family: 'Open Sans', verdana, arial, sans-serif; font-size: 14px; fill: rgb(42, 63, 95); fill-opacity: 1; white-space: pre;">Jun 2020</text></g><g class="xtick"><text text-anchor="middle" x="0" y="435" transform="translate(546.3399999999999,0)" style="font-family: 'Open Sans', verdana, arial, sans-serif; font-size: 14px; fill: rgb(42, 63, 95); fill-opacity: 1; white-space: pre;">Jul 2020</text></g><g class="xtick"><text text-anchor="middle" x="0" y="435" transform="translate(636.14,0)" style="font-family: 'Open Sans', verdana, arial, sans-serif; font-size: 14px; fill: rgb(42, 63, 95); fill-opacity: 1; white-space: pre;">Aug 2020</text></g><g class="xtick"><text text-anchor="middle" x="0" y="435" transform="translate(725.93,0)" style="font-family: 'Open Sans', verdana, arial, sans-serif; font-size: 14px; fill: rgb(42, 63, 95); fill-opacity: 1; white-space: pre;">Sep 2020</text></g><g class="xtick"><text text-anchor="middle" x="0" y="435" transform="translate(812.83,0)" style="font-family: 'Open Sans', verdana, arial, sans-serif; font-size: 14px; fill: rgb(42, 63, 95); fill-opacity: 1; white-space: pre;">Oct 2020</text></g><g class="xtick"><text text-anchor="middle" x="0" y="435" transform="translate(902.62,0)" style="font-family: 'Open Sans', verdana, arial, sans-serif; font-size: 14px; fill: rgb(42, 63, 95); fill-opacity: 1; white-space: pre;">Nov 2020</text></g></g><g class="yaxislayer-above"><g class="ytick"><text text-anchor="end" x="79" y="4.199999999999999" transform="translate(0,400.48)" style="font-family: 'Open Sans', verdana, arial, sans-serif; font-size: 12px; fill: rgb(42, 63, 95); fill-opacity: 1; white-space: pre;">0</text></g><g class="ytick"><text text-anchor="end" x="79" y="4.199999999999999" transform="translate(0,356.18)" style="font-family: 'Open Sans', verdana, arial, sans-serif; font-size: 12px; fill: rgb(42, 63, 95); fill-opacity: 1; white-space: pre;">20k</text></g><g class="ytick"><text text-anchor="end" x="79" y="4.199999999999999" transform="translate(0,311.87)" style="font-family: 'Open Sans', verdana, arial, sans-serif; font-size: 12px; fill: rgb(42, 63, 95); fill-opacity: 1; white-space: pre;">40k</text></g><g class="ytick"><text text-anchor="end" x="79" y="4.199999999999999" transform="translate(0,267.56)" style="font-family: 'Open Sans', verdana, arial, sans-serif; font-size: 12px; fill: rgb(42, 63, 95); fill-opacity: 1; white-space: pre;">60k</text></g><g class="ytick"><text text-anchor="end" x="79" y="4.199999999999999" transform="translate(0,223.25)" style="font-family: 'Open Sans', verdana, arial, sans-serif; font-size: 12px; fill: rgb(42, 63, 95); fill-opacity: 1; white-space: pre;">80k</text></g><g class="ytick"><text text-anchor="end" x="79" y="4.199999999999999" transform="translate(0,178.94)" style="font-family: 'Open Sans', verdana, arial, sans-serif; font-size: 12px; fill: rgb(42, 63, 95); fill-opacity: 1; white-space: pre;">100k</text></g><g class="ytick"><text text-anchor="end" x="79" y="4.199999999999999" transform="translate(0,134.64)" style="font-family: 'Open Sans', verdana, arial, sans-serif; font-size: 12px; fill: rgb(42, 63, 95); fill-opacity: 1; white-space: pre;">120k</text></g></g><g class="overaxes-above"/></g></g><g class="polarlayer"/><g class="ternarylayer"/><g class="geolayer"/><g class="funnelarealayer"/><g class="pielayer"/><g class="treemaplayer"/><g class="sunburstlayer"/><g class="glimages"/><defs id="topdefs-247d3f"><g class="clips"/><clipPath id="legend247d3f"><rect width="147" height="67" x="0" y="0"/></clipPath></defs><g class="layer-above"><g class="imagelayer"/><g class="shapelayer"/></g><g class="infolayer"><g class="legend" pointer-events="all" transform="translate(88.4, 103.2)"><rect class="bg" shape-rendering="crispEdges" style="stroke: rgb(68, 68, 68); stroke-opacity: 1; fill: rgb(255, 255, 255); fill-opacity: 1; stroke-width: 0px;" width="147" height="67" x="0" y="0"/><g class="scrollbox" transform="translate(0, 0)" clip-path="url('#legend247d3f')"><g class="groups"><g class="traces" style="opacity: 1;" transform="translate(0, 14.5)"><text class="legendtext" text-anchor="start" x="40" y="4.680000000000001" style="font-family: 'Open Sans', verdana, arial, sans-serif; font-size: 12px; fill: rgb(42, 63, 95); fill-opacity: 1; white-space: pre;">Confirmed Cases</text><g class="layers" style="opacity: 1;"><g class="legendfill"/><g class="legendlines"><path class="js-line" d="M5,0h30" style="fill: none; stroke: rgb(0, 0, 255); stroke-opacity: 1; stroke-width: 2px;"/></g><g class="legendsymbols"><g class="legendpoints"/></g></g><rect class="legendtoggle" x="0" y="-9.5" width="141.796875" height="19" style="fill: rgb(0, 0, 0); fill-opacity: 0;"/></g><g class="traces" style="opacity: 1;" transform="translate(0, 33.5)"><text class="legendtext" text-anchor="start" x="40" y="4.680000000000001" style="font-family: 'Open Sans', verdana, arial, sans-serif; font-size: 12px; fill: rgb(42, 63, 95); fill-opacity: 1; white-space: pre;">SVM Model</text><g class="layers" style="opacity: 1;"><g class="legendfill"/><g class="legendlines"><path class="js-line" d="M5,0h30" style="fill: none; stroke: rgb(255, 0, 0); stroke-opacity: 1; stroke-width: 2px;"/></g><g class="legendsymbols"><g class="legendpoints"/></g></g><rect class="legendtoggle" x="0" y="-9.5" width="141.796875" height="19" style="fill: rgb(0, 0, 0); fill-opacity: 0;"/></g><g class="traces" style="opacity: 1;" transform="translate(0, 52.5)"><text class="legendtext" text-anchor="start" x="40" y="4.680000000000001" style="font-family: 'Open Sans', verdana, arial, sans-serif; font-size: 12px; fill: rgb(42, 63, 95); fill-opacity: 1; white-space: pre;">LR Model</text><g class="layers" style="opacity: 1;"><g class="legendfill"/><g class="legendlines"><path class="js-line" d="M5,0h30" style="fill: none; stroke: rgb(0, 128, 0); stroke-opacity: 1; stroke-width: 2px;"/></g><g class="legendsymbols"><g class="legendpoints"/></g></g><rect class="legendtoggle" x="0" y="-9.5" width="141.796875" height="19" style="fill: rgb(0, 0, 0); fill-opacity: 0;"/></g></g></g><rect class="scrollbar" rx="20" ry="3" width="0" height="0" style="fill: rgb(128, 139, 164); fill-opacity: 1;" x="0" y="0"/></g><g class="g-gtitle"/><g class="g-xtitle"/><g class="g-ytitle"><text class="ytitle" transform="rotate(-90,24.200000000000003,260)" x="24.200000000000003" y="260" text-anchor="middle" style="font-family: 'Open Sans', verdana, arial, sans-serif; font-size: 14px; fill: rgb(42, 63, 95); opacity: 1; font-weight: normal; white-space: pre;">Number of Cases</text></g></g></svg>